<?xml version="1.0" encoding="utf-8"?>
<!-- Generator: Adobe Illustrator 23.1.0, SVG Export Plug-In . SVG Version: 6.00 Build 0)  -->
<svg version="1.1" id="Capa_1" xmlns="http://www.w3.org/2000/svg" xmlns:xlink="http://www.w3.org/1999/xlink" x="0px" y="0px"
	 viewBox="0 0 512 512" style="enable-background:new 0 0 512 512;" xml:space="preserve">
<style type="text/css">
	.st0{fill:#FFFFFF;}
</style>
<g>
	<g>
		<path class="st0" d="M413.9,312.2l-33.1-33.1c-13-13-34.1-13-47.1,0c-3.9,3.9-6.6,8.5-8.2,13.4c-11.7-4.1-25.2-1.4-34.5,7.9
			c-4.9,4.9-7.9,10.9-9.1,17.2c-10.2-1.5-20.8,2-28.2,9.4c-3,3-5.3,6.4-6.9,10L227.8,318c-12.6-12.6-34.5-12.5-47.1,0
			c-6.3,6.3-9.8,14.7-9.8,23.6s3.5,17.3,9.8,23.6l81.6,81.6h-16.9c-29.4,0-53.3,23.9-53.3,53.3c0,5.9,4.8,10.7,10.7,10.7h129.1
			c64.1,0,116.3-52.2,116.3-116.3C448,363.4,435.9,334.2,413.9,312.2z M331.7,489.4H215.1c4.4-12.4,16.3-21.3,30.2-21.4H288
			c4.3,0,8.2-2.6,9.9-6.6c1.7-4,0.7-8.6-2.3-11.6L195.8,350c-2.3-2.2-3.5-5.3-3.5-8.4s1.3-6.2,3.5-8.4c4.5-4.5,12.4-4.5,16.9,0
			l67.8,67.8c4.2,4.2,10.9,4.2,15.1,0c2.1-2.1,3.1-4.8,3.1-7.6s-1-5.5-3.1-7.6l-26.7-26.7c-2.3-2.2-3.5-5.3-3.5-8.4s1.2-6.2,3.5-8.4
			c4.5-4.5,12.4-4.5,16.9,0l16,16c4.2,4.2,10.9,4.2,15.1,0c2.1-2.1,3.1-4.8,3.1-7.6s-1-5.5-3.1-7.5l-10.7-10.7
			c-2.3-2.2-3.5-5.3-3.5-8.4s1.2-6.2,3.5-8.4c4.7-4.7,12.2-4.7,16.9,0l10.7,10.7c4.2,4.2,10.9,4.2,15.1,0c2.1-2.1,3.1-4.8,3.1-7.6
			s-1-5.5-3.1-7.6c-4.7-4.7-4.7-12.2,0-16.9s12.2-4.7,16.9,0l33.1,33.1c17.9,17.9,27.8,41.8,27.8,67.1
			C426.7,446.8,384.1,489.4,331.7,489.4z"/>
	</g>
</g>
<g>
	<g>
		<path class="st0" d="M74.7,286.7C33.5,286.7,0,320.2,0,361.4S33.5,436,74.7,436s74.7-33.5,74.7-74.7
			C149.3,320.2,115.8,286.7,74.7,286.7z M74.7,414.7c-29.4,0-53.3-23.9-53.3-53.3S45.3,308,74.7,308S128,332,128,361.4
			C128,390.8,104.1,414.7,74.7,414.7z"/>
	</g>
</g>
<g>
	<g>
		<g>
			<path class="st0" d="M415.2,121.9c-5.4-2.5-10.3-5.8-14.7-9.9c-4.2-4.1-11-3.9-15.1,0.3c-4.1,4.3-3.9,11,0.3,15.1
				c6,5.8,12.9,10.5,20.5,13.9c1.5,0.6,3,1,4.4,1c4.1,0,7.9-2.3,9.7-6.2C422.9,130.7,420.5,124.3,415.2,121.9z"/>
			<path class="st0" d="M409.6,4.1c-7.7,3.1-14.8,7.4-21.1,12.9c-4.4,3.8-4.9,10.6-1.1,15c2.1,2.4,5.1,3.7,8.1,3.7
				c2.5,0,5-0.9,7-2.6c4.5-3.9,9.6-7,15.1-9.2c5.5-2.2,8.1-8.4,5.9-13.9C421.2,4.5,415,1.9,409.6,4.1z"/>
			<path class="st0" d="M384.5,80.9c-0.4-2.5-0.5-5-0.5-7.6c0-3.5,0.3-6.8,1-10.1c1.1-5.8-2.7-11.4-8.4-12.5
				c-5.8-1.1-11.4,2.7-12.5,8.4c-0.9,4.6-1.3,9.3-1.3,14.1c0,3.6,0.2,7.2,0.7,10.6c0.8,5.3,5.3,9.2,10.6,9.2c0.5,0,1,0,1.5-0.1
				C381.3,92.2,385.4,86.8,384.5,80.9z"/>
			<path class="st0" d="M480.7,12.6c-6.8-4.9-14.3-8.5-22.3-10.9c-5.6-1.6-11.6,1.6-13.2,7.2c-1.7,5.7,1.6,11.6,7.2,13.2
				c5.7,1.7,11.1,4.3,15.9,7.7c1.9,1.3,4,2,6.2,2c3.3,0,6.6-1.6,8.7-4.5C486.6,22.7,485.5,16,480.7,12.6z"/>
			<path class="st0" d="M466.2,118.2c-5,3.2-10.5,5.6-16.3,7c-5.7,1.4-9.2,7.1-7.9,12.9c1.2,4.9,5.5,8.1,10.3,8.1
				c0.8,0,1.7-0.1,2.5-0.3c8.1-2,15.8-5.3,22.8-9.8c5-3.2,6.4-9.8,3.2-14.7C477.7,116.5,471.1,115.1,466.2,118.2z"/>
			<path class="st0" d="M509,52.3c-1.7-5.6-7.5-8.8-13.2-7.2c-5.7,1.7-8.9,7.6-7.2,13.2c1.4,4.8,2.1,9.9,2.1,15c0,6-1,11.9-2.9,17.5
				c-1.9,5.6,1,11.6,6.6,13.6c1.2,0.4,2.3,0.6,3.5,0.6c4.4,0,8.6-2.8,10.1-7.2c2.7-7.8,4.1-16,4.1-24.4C512,66.3,511,59.2,509,52.3z
				"/>
		</g>
	</g>
</g>
<g>
	<g>
		<g>
			<path class="st0" d="M191.9,173.9c-5.5,4.7-11,9.6-16.3,14.4c-4.3,4-4.6,10.8-0.6,15.1c2.1,2.3,5,3.5,7.9,3.5
				c2.6,0,5.2-0.9,7.2-2.8c5.1-4.7,10.3-9.3,15.7-14c4.5-3.8,5-10.6,1.2-15C203.1,170.6,196.4,170.1,191.9,173.9z"/>
			<path class="st0" d="M144.7,219c-5.1,5.6-10,11.1-14.5,16.6c-3.7,4.6-3.1,11.3,1.5,15c2,1.6,4.4,2.4,6.7,2.4
				c3.1,0,6.1-1.3,8.3-3.9c4.2-5.2,8.8-10.4,13.6-15.6c4-4.3,3.7-11.1-0.6-15.1C155.5,214.5,148.8,214.7,144.7,219z"/>
			<path class="st0" d="M119.4,268.1c-5.2-2.7-11.7-0.7-14.4,4.5c-4.1,7.9-7,15.3-8.7,22.2c-1.4,5.7,2.1,11.5,7.9,12.9
				c0.9,0.2,1.7,0.3,2.5,0.3c4.8,0,9.2-3.3,10.3-8.2c1.3-5.2,3.6-11,6.9-17.3C126.6,277.3,124.6,270.9,119.4,268.1z"/>
			<path class="st0" d="M373.5,83.2c-1-5.8-6.5-9.7-12.3-8.7c-6.7,1.2-14.2,3.2-22.4,6.1c-5.5,2-8.4,8.1-6.4,13.7
				c1.6,4.4,5.7,7.1,10,7.1c1.2,0,2.4-0.2,3.6-0.6c7-2.5,13.3-4.2,18.7-5.2C370.6,94.5,374.5,89,373.5,83.2z"/>
			<path class="st0" d="M298.6,99.1c-6.2,3.3-12.5,7-19,10.9c-5,3.1-6.7,9.6-3.6,14.7c2,3.3,5.5,5.1,9.1,5.1c1.9,0,3.8-0.5,5.5-1.6
				c6.1-3.7,12.2-7.2,18.1-10.4c5.2-2.8,7.1-9.3,4.3-14.5C310.2,98.3,303.7,96.3,298.6,99.1z"/>
			<path class="st0" d="M243.3,133.9c-5.9,4.2-11.7,8.4-17.5,12.8c-4.7,3.5-5.7,10.2-2.1,14.9c2.1,2.8,5.3,4.2,8.5,4.2
				c2.2,0,4.5-0.7,6.4-2.2c5.6-4.3,11.3-8.4,17-12.4c4.8-3.4,6-10.1,2.6-14.9C254.7,131.6,248.1,130.5,243.3,133.9z"/>
		</g>
	</g>
</g>
</svg>
