<?xml version="1.0" encoding="utf-8"?>
<!-- Generator: Adobe Illustrator 23.1.0, SVG Export Plug-In . SVG Version: 6.00 Build 0)  -->
<svg version="1.1" id="Capa_1" xmlns="http://www.w3.org/2000/svg" xmlns:xlink="http://www.w3.org/1999/xlink" x="0px" y="0px"
	 viewBox="0 0 512 512" style="enable-background:new 0 0 512 512;" xml:space="preserve">
<style type="text/css">
	.st0{fill:#58A1DD;}
</style>
<path class="st0" d="M136.3,330.5c0,0-136.3,136.3-136.3,136.3L45.2,512l136.3-136.3C215.9,400.9,258.2,416,304,416
	c114.7,0,208-93.3,208-208S418.7,0,304,0S96,93.3,96,208C96,253.8,111.1,296.1,136.3,330.5L136.3,330.5z M304,352
	c-79.4,0-144-64.6-144-144S224.6,64,304,64s144,64.6,144,144S383.4,352,304,352L304,352z"/>
</svg>
